<svg viewBox="0 0 76 28" fill="none" xmlns="http://www.w3.org/2000/svg" class="botify-logo">
  <g clip-path="url(#clip0_2340_12147)">
    <path fill="white" class="c-logo-nav logo-path" d="M49.4777 7.28516H45.1914V22.1552H49.4777V7.28516Z"></path>
    <path fill="white" class="c-logo-nav logo-path" d="M47.3461 5.37158C48.7623 5.37158 49.8847 4.31697 49.8847 2.84804C49.8847 1.40924 48.7623 0.332031 47.3461 0.332031C45.8998 0.332031 44.7773 1.41678 44.7773 2.84804C44.7849 4.30943 45.8998 5.37158 47.3461 5.37158Z"></path>
    <path fill="white" class="c-logo-nav logo-path" d="M24.8452 18.5092C22.751 18.5092 21.0561 16.8143 21.0561 14.7202C21.0561 12.626 22.751 10.9311 24.8452 10.9311C26.9393 10.9311 28.6342 12.626 28.6342 14.7202C28.6342 16.8143 26.9393 18.5092 24.8452 18.5092ZM24.8452 6.86328C20.5062 6.86328 16.9883 10.3812 16.9883 14.7202C16.9883 19.0591 20.5062 22.577 24.8452 22.577C29.1841 22.577 32.702 19.0591 32.702 14.7202C32.7096 10.3812 29.1841 6.86328 24.8452 6.86328Z"></path>
    <path fill="white" class="c-logo-nav logo-path" d="M9.72505 18.0189C9.17514 18.3277 8.54237 18.5085 7.86441 18.5085C5.77024 18.5085 4.07533 16.8136 4.07533 14.7194C4.07533 12.6253 5.77024 10.9304 7.86441 10.9304C9.95857 10.9304 11.6535 12.6253 11.6535 14.7194C11.6535 15.3974 11.4727 16.0302 11.1638 16.5801L14.0942 19.5104C15.1186 18.1846 15.7288 16.5198 15.7288 14.7119C15.7288 10.3729 12.2109 6.90776 7.87194 6.90776C6.5838 6.90776 5.371 7.27688 4.29379 7.82679V0.632812H0V14.727C0 19.5405 3.51789 22.5838 7.85687 22.5838C9.66478 22.5838 11.322 21.9737 12.6554 20.9492L9.72505 18.0189Z"></path>
    <path fill="white" class="c-logo-nav logo-path" d="M57.6139 6.14689C57.6139 4.5725 58.5706 3.73635 60.2354 3.73635C60.4087 3.73635 60.5819 3.75141 60.7552 3.77401V0.0753296C60.3785 0.0301318 59.9944 0 59.58 0C56.0848 0 53.3428 1.95104 53.3428 6.04143V7.28437H51.1055V10.7947H53.3428L53.3578 22.1544H57.6139V10.7872H60.7477V7.28437H57.6139V6.14689Z"></path>
    <path fill="white" class="c-logo-nav logo-path" d="M43.4058 18.132C42.8257 18.4032 42.0574 18.6518 41.2212 18.6518C39.692 18.6518 39.2325 17.8382 39.2325 16.1283V10.7874H43.4058V7.28457H39.2325V2.84766H34.9538V7.28457H32.6562V10.7949H34.9538V16.5426C34.9538 20.5275 36.8069 22.5313 40.3022 22.5313C41.402 22.5313 42.4642 22.3655 43.4133 22.019V18.132H43.4058Z"></path>
    <path fill="white" class="c-logo-nav logo-path" d="M66.3889 15.3454V7.28516H62.2383V15.3454C62.2383 19.24 64.468 22.5695 68.7844 22.5695C69.6658 22.5695 70.4492 22.3586 71.1724 22.0046C71.1724 22.5394 71.308 24.1288 69.6432 24.1288H62.2383V28.0008H70.1102C73.6055 28.0008 75.3306 26.1025 75.3306 21.7635V7.28516H71.1799V15.3454C71.1799 16.1514 71.1648 18.4264 68.7844 18.4264C66.404 18.4264 66.3889 16.1514 66.3889 15.3454Z"></path>
  </g>
  <defs>
  <clipPath id="clip0_2340_12147">
    <rect width="75.3296" height="28" fill="white"></rect>
  </clipPath>
  </defs>
</svg>
